HIERARCHY
ROOT Hips
{
	OFFSET -0.179506 -22.333345 2.821913
	CHANNELS 6 Xposition Yposition Zposition Zrotation Yrotation Xrotation 
	JOINT LeftUpLeg
	{
		OFFSET 6.951974 -9.140623 -0.681533
		CHANNELS 3 Zrotation Yrotation Xrotation
		JOINT LeftLeg
		{
			OFFSET 3.427654 -37.519855 -0.449580
			CHANNELS 3 Zrotation Yrotation Xrotation
			JOINT LeftFoot
			{
				OFFSET -1.359570 -39.796059 -4.369333
				CHANNELS 3 Zrotation Yrotation Xrotation
				JOINT LeftToe
				{
					OFFSET 2.635814 -5.579078 11.928840
					CHANNELS 3 Zrotation Yrotation Xrotation
					End Site
					{
						OFFSET 0.000000 0.000000 0.000000
					}
				}
			}
		}
	}
	JOINT RightUpLeg
	{
		OFFSET -6.767048 -9.052170 -0.431982
		CHANNELS 3 Zrotation Yrotation Xrotation
		JOINT RightLeg
		{
			OFFSET -3.829005 -38.256897 -0.885003
			CHANNELS 3 Zrotation Yrotation Xrotation
			JOINT RightFoot
			{
				OFFSET 1.577377 -39.841461 -4.231180
				CHANNELS 3 Zrotation Yrotation Xrotation
				JOINT RightToe
				{
					OFFSET -2.537174 -4.814398 12.334795
					CHANNELS 3 Zrotation Yrotation Xrotation
					End Site
					{
						OFFSET 0.000000 0.000000 0.000000
					}
				}
			}
		}
	}
	JOINT Spine
	{
		OFFSET -0.253288 10.896323 -2.669631
		CHANNELS 3 Zrotation Yrotation Xrotation
		JOINT Spine1
		{
			OFFSET 0.548704 13.518043 0.109247
			CHANNELS 3 Zrotation Yrotation Xrotation
			JOINT Spine2
			{
				OFFSET 0.145701 5.292222 2.542457
				CHANNELS 3 Zrotation Yrotation Xrotation
				JOINT Neck
				{
					OFFSET -0.277840 21.387037 -4.285703
					CHANNELS 3 Zrotation Yrotation Xrotation
					JOINT Head
					{
						OFFSET 0.515184 6.496960 5.134897
						CHANNELS 3 Zrotation Yrotation Xrotation
						End Site
						{
							OFFSET 0.000000 0.000000 0.000000
						}
					}
				}
				JOINT LeftShoulder
				{
					OFFSET 7.884473 12.174932 -3.408961
					CHANNELS 3 Zrotation Yrotation Xrotation
					JOINT LeftArm
					{
						OFFSET 9.097692 3.046888 -0.886815
						CHANNELS 3 Zrotation Yrotation Xrotation
						JOINT LeftForeArm
						{
							OFFSET 25.961220 -1.277207 -2.745643
							CHANNELS 3 Zrotation Yrotation Xrotation
							JOINT LeftHand
							{
								OFFSET 24.923361 0.898606 -0.117091
								CHANNELS 3 Zrotation Yrotation Xrotation
								End Site
								{
									OFFSET 0.000000 0.000000 0.000000
								}
							}
						}
					}
				}
				JOINT RightShoulder
				{
					OFFSET -8.175920 11.883285 -3.861528
					CHANNELS 3 Zrotation Yrotation Xrotation
					JOINT RightArm
					{
						OFFSET -9.601238 3.255117 -0.914307
						CHANNELS 3 Zrotation Yrotation Xrotation
						JOINT RightForeArm
						{
							OFFSET -25.374195 -1.332924 -2.140099
							CHANNELS 3 Zrotation Yrotation Xrotation
							JOINT RightHand
							{
								OFFSET -25.529810 0.777228 -0.555919
								CHANNELS 3 Zrotation Yrotation Xrotation
								End Site
								{
									OFFSET 0.000000 0.000000 0.000000
								}
							}
						}
					}
				}
			}
		}
	}
}
MOTION
Frames: 14
Frame Time: 0.033333
-0.179506 103.749207 2.821913 -174.367318 -3.193599 176.832090 0.645733 3.782163 3.314070 -3.544183 -17.315851 9.646218 -5.941988 13.476156 -11.902043 3.772263 0.793667 0.129487 -5.686503 -3.538030 -18.674520 0.783159 3.063913 13.106828 13.063073 -13.351900 -4.812889 0.088951 -1.580051 2.028048 3.758413 -0.647304 12.431133 0.238550 1.176926 0.554233 4.419485 0.531005 1.672264 -1.104967 1.356955 -1.373139 2.920906 4.091756 -8.378158 -7.192210 7.099864 -4.796600 -13.919654 1.263708 -8.735539 -3.047417 -0.544057 -16.911747 10.092690 -5.469002 -3.599215 0.614958 -2.347089 -7.847691 6.882553 1.709550 -14.057957 -6.644768 6.996275 -25.920919 -10.447250 3.245604 5.448682 
-0.211550 103.673203 1.386575 -174.901628 -2.638071 177.174370 0.096707 4.359927 4.504087 -3.127224 -17.410736 8.709632 -6.096580 13.270413 -11.904805 3.309702 1.022553 0.378553 -6.931135 -4.047972 -19.668018 0.118553 2.605527 9.615122 14.198194 -13.113634 -3.388287 0.018597 -1.653768 2.120781 4.670298 -0.989141 12.447047 1.330753 1.279216 0.500638 4.961408 0.819979 1.371828 -1.219151 1.800592 -1.451278 1.648158 3.665718 -8.307809 -6.655970 7.354540 -4.672008 -12.382239 1.579432 -8.692544 -3.351958 -1.402062 -16.021799 10.213290 -6.823325 -2.003984 1.260751 -2.314010 -7.678514 6.365897 1.868827 -14.276680 -6.861292 6.679497 -27.659193 -10.924441 3.654373 6.092691 
-0.377039 103.528458 -0.146830 -175.428915 -2.510572 177.478972 -0.363000 4.870177 5.731959 -2.971763 -17.569543 7.850271 -6.306857 12.986374 -11.972381 2.978108 1.124398 0.595186 -8.258207 -4.681468 -20.251699 -0.152939 1.895836 6.959280 14.916054 -13.264812 -2.692792 -0.153785 -1.609525 2.225897 5.606431 -1.051701 12.343395 2.469217 1.288540 0.885554 5.582039 1.240846 0.889983 -1.538218 2.149789 -1.531455 0.500025 2.987295 -8.890595 -5.941542 7.281010 -4.660060 -10.442359 1.643807 -9.241412 -3.645005 -1.595993 -15.711704 9.947117 -7.234907 -0.440262 1.849741 -2.274833 -7.290477 6.181084 1.841347 -14.684164 -7.355393 6.062454 -29.617783 -11.203411 3.214396 5.749530 
-0.035554 103.325546 -1.037274 -176.372228 -2.293185 177.416857 -1.018470 5.380956 6.474239 -2.992197 -17.704446 7.904493 -6.432089 12.729935 -12.422044 2.648270 1.217111 0.631581 -9.530427 -5.604357 -20.718595 -0.318810 1.373832 4.933460 15.845389 -13.083558 -1.637693 -0.395950 -1.503636 2.274839 6.554705 -1.126385 12.481131 3.756844 1.261497 1.155656 6.325497 1.676393 0.512300 -1.958023 2.897598 -1.540409 -0.518083 3.051666 -9.567972 -5.047556 7.287684 -4.760384 -8.650986 1.678582 -9.796260 -3.820065 -1.960523 -15.903788 10.343196 -7.484900 0.977344 2.229632 -2.276310 -6.865674 5.804919 1.925512 -14.975743 -7.261387 5.646944 -31.051241 -11.879672 3.004631 5.891739 
0.821665 103.096359 -2.204380 -177.678137 -2.029221 177.288660 -1.658483 5.772318 7.292796 -3.285037 -18.233048 8.352426 -6.457594 12.818285 -12.821491 2.505877 1.296077 0.658243 -10.809562 -6.237143 -21.215166 -0.226502 1.322280 4.093836 16.436041 -13.157595 -0.839216 -0.648037 -1.380776 2.414654 7.525744 -1.154961 12.551187 4.970075 1.206857 1.450477 7.057683 2.068546 0.220709 -2.384233 3.266631 -1.285879 -1.763019 3.035693 -9.422240 -4.332255 7.139852 -4.751885 -7.045830 1.386815 -10.507870 -3.782180 -2.432178 -15.708250 11.207804 -7.681941 2.263268 2.846284 -2.263650 -6.493433 5.305739 1.893841 -15.025156 -7.177061 5.079666 -32.708829 -12.396674 2.640053 5.165715 
1.683238 102.881378 -3.970915 -179.055025 -2.080571 177.467634 -2.247823 6.034028 8.272270 -3.554856 -18.770426 8.595930 -6.724528 12.641496 -12.814738 2.642233 1.265366 0.579959 -11.859051 -6.740075 -21.631349 -0.008198 1.182469 4.295106 16.391260 -13.110565 -0.251625 -0.579013 -1.248634 2.450090 8.552709 -1.138054 12.348418 6.218855 1.252614 1.580733 7.661341 2.368946 0.066619 -2.530299 3.327865 -0.932582 -2.322524 2.743003 -9.412986 -3.441756 7.138613 -4.845323 -6.074854 1.121769 -10.990294 -3.686837 -3.501456 -15.048938 11.458659 -8.051767 2.803764 3.147832 -2.289288 -6.365707 5.625208 1.977626 -14.853306 -7.162199 4.839793 -33.675897 -12.448837 2.452917 4.282379 
2.561901 102.666023 -5.275191 179.736843 -1.602087 177.230745 -2.877642 6.128865 9.044828 -3.888008 -19.234844 9.503846 -6.809375 12.865107 -12.929966 2.679034 1.254373 0.502426 -12.651725 -6.913401 -21.808044 0.490166 1.355181 5.630346 16.012404 -13.163032 -0.333016 -0.695558 -1.056922 2.527217 9.750442 -1.209956 12.349980 7.287801 1.249789 1.761123 8.205905 2.650099 -0.220829 -3.108532 3.634737 -0.592365 -3.226497 2.737473 -9.666395 -2.886553 6.909294 -4.867331 -4.548098 1.357275 -11.535429 -3.663284 -4.140193 -15.181549 11.637221 -8.404744 2.750811 3.825662 -2.058488 -6.162079 5.600633 1.920121 -14.470151 -7.434663 4.438597 -34.730576 -12.938855 2.308723 2.786857 
3.621373 102.487000 -7.503657 178.667855 -1.617562 177.402726 -3.174249 6.150893 9.728720 -4.237438 -20.180821 10.779044 -7.282225 13.142833 -12.410426 2.762888 1.222996 0.385326 -13.214897 -6.802561 -21.843134 1.007691 1.694883 7.940296 15.425633 -13.234703 -0.500181 -0.890832 -0.870390 2.500752 11.098925 -1.258935 12.198883 8.089962 1.250996 1.987781 8.700186 2.994544 -0.350209 -3.401365 3.704344 -0.195947 -4.016906 2.410891 -10.057845 -2.435909 6.820395 -5.070022 -3.460187 1.272656 -11.712066 -3.493186 -4.841785 -15.408235 11.951926 -8.665317 2.404259 4.459203 -2.016627 -6.085655 5.710894 1.977884 -13.979287 -7.184932 3.889694 -35.651219 -13.171253 1.895185 1.066709 
4.474307 102.339096 -9.906047 177.897767 -1.088207 177.706994 -3.340529 6.252639 10.334909 -4.696665 -20.410850 12.056450 -7.975760 13.588495 -11.464522 2.818791 1.206567 0.381044 -13.608342 -6.564384 -21.777208 1.516141 1.768469 10.739592 14.627593 -13.281817 -0.622911 -1.052065 -0.605107 2.397715 12.336668 -1.273594 11.886768 9.050884 1.118850 2.057374 9.055689 3.362710 -0.730271 -3.529355 4.156791 0.325327 -4.551607 2.683988 -10.456295 -2.127413 6.749539 -5.201501 -2.444809 1.296752 -11.769611 -3.356103 -5.782318 -15.784718 11.666863 -9.102317 2.241309 5.212848 -1.951978 -5.956719 5.921602 1.855342 -13.384431 -7.015441 3.800728 -35.741469 -13.318083 1.819918 0.374516 
5.645184 102.250076 -12.427472 176.998947 -0.555940 177.804997 -3.383948 6.308430 10.626119 -5.378457 -20.511032 14.250066 -8.760686 13.650233 -9.580847 2.869835 1.191032 0.430972 -13.974336 -6.146266 -21.360092 1.975067 2.329329 13.654202 13.807900 -12.804479 -1.703338 -1.191952 -0.322391 2.235450 13.406369 -1.220971 11.613642 9.732068 0.999018 2.219187 9.149418 3.667001 -1.094736 -3.558685 4.670378 1.203467 -5.238784 2.357502 -10.181506 -1.769620 6.618174 -5.486687 -1.549594 1.247309 -11.796815 -3.390965 -5.802937 -15.694655 11.149770 -9.255163 2.463955 6.219288 -1.890768 -5.871310 6.688770 1.938993 -12.273853 -6.476717 3.606075 -34.724174 -12.741362 1.597817 -0.362355 
6.895393 102.211716 -14.905813 176.246691 0.367690 177.206673 -3.357245 6.145255 10.428926 -6.616670 -19.811948 18.023833 -9.366485 13.976963 -7.502950 2.897630 1.147115 0.425168 -14.083523 -5.826297 -20.857805 2.602537 2.267576 16.485359 12.617465 -11.819943 -3.979760 -1.274031 -0.083983 2.065464 14.288627 -1.159621 11.498791 10.441436 0.749283 2.715207 9.240914 4.070596 -1.617721 -3.808540 5.750099 2.028821 -6.064737 1.995357 -10.406203 -1.480970 6.675656 -5.465321 -0.375003 1.648564 -11.538495 -3.538841 -6.432883 -15.632732 10.786818 -9.477926 2.595655 7.219799 -1.742512 -5.580208 7.389282 2.248001 -11.264610 -5.903235 3.350882 -34.298800 -12.998396 1.147623 -1.304027 
8.183437 102.284889 -17.981361 175.507802 1.346937 176.788433 -3.213987 5.921621 9.122165 -8.253211 -18.368948 23.466542 -10.061142 14.177372 -4.782015 2.945697 1.135603 0.451820 -14.158198 -5.694002 -19.628339 3.092949 2.383909 18.647633 11.215315 -10.488941 -7.815555 -1.326930 0.064708 2.032310 14.828447 -0.786543 11.215584 10.973423 0.512157 3.130599 9.555873 4.449385 -1.859123 -3.954381 6.613838 2.888788 -6.707148 1.955048 -10.575836 -0.952323 6.568922 -5.386774 0.427479 1.497157 -12.136655 -3.712713 -6.182131 -15.819772 11.087669 -9.190380 2.288226 7.875446 -1.771543 -4.921851 8.354076 2.098143 -10.607876 -5.325476 2.753330 -33.578852 -13.096029 0.878451 -2.218762 
9.423670 102.419312 -20.135651 175.183855 2.531295 175.876192 -2.895273 5.570732 6.473055 -9.947105 -16.031875 30.636417 -10.635548 14.657256 -1.131807 3.009972 1.069470 0.461386 -13.788780 -5.468583 -18.063077 3.556415 2.601417 19.953376 9.800006 -9.387778 -10.645302 -1.351157 0.146437 1.965734 15.194049 -0.417394 11.164539 11.323052 0.256645 3.577625 9.917950 4.697365 -1.997836 -4.100886 7.840553 3.692159 -7.157358 2.193572 -10.646106 -0.466876 6.457924 -5.446177 1.128240 1.426264 -13.031871 -3.801618 -5.896525 -16.449535 12.316676 -9.019408 2.173181 8.489677 -1.775215 -4.499151 9.329735 1.970407 -9.892243 -4.734883 2.536192 -32.274727 -13.492480 0.750021 -3.085550 
10.643660 102.608826 -21.824217 174.861601 3.719423 175.005445 -2.645158 5.034110 3.424433 -11.102581 -13.575540 37.498058 -10.833273 15.354901 1.754665 3.221784 0.953317 0.411809 -13.367789 -5.018804 -16.518054 3.979293 3.304575 20.644917 8.485701 -8.880749 -12.678247 -1.426833 0.277634 1.951427 15.427858 -0.123722 11.270138 11.580649 -0.091073 3.727093 10.096360 4.888309 -2.100219 -4.404847 8.975726 4.216667 -8.008942 1.833925 -10.469754 0.358159 6.352648 -5.572050 1.871489 1.339109 -13.685676 -4.130609 -5.703937 -16.385786 12.828585 -8.836025 1.879821 9.072741 -1.936241 -4.130720 10.006730 1.906412 -9.269243 -3.815428 2.109117 -31.240996 -13.462382 0.505579 -4.016482 
